<svg width="660" height="660" viewBox="0 0 660 660" fill="none" xmlns="http://www.w3.org/2000/svg">
<rect width="660" height="660" rx="330" fill="#02274F"/>
<path d="M167.752 397.846C159.732 397.846 152.58 396.042 146.298 392.433C140.015 388.823 135.069 383.877 131.46 377.595V395.841H108V262H134.869V309.22C138.611 302.938 143.49 297.992 149.506 294.383C155.655 290.773 162.806 288.969 170.961 288.969C180.05 288.969 188.004 291.509 194.821 296.588C201.772 301.534 207.186 308.151 211.063 316.439C214.939 324.727 216.878 333.816 216.878 343.708C216.878 353.868 214.739 363.024 210.461 371.178C206.184 379.332 200.302 385.816 192.816 390.628C185.464 395.44 177.11 397.846 167.752 397.846ZM160.333 374.988C166.081 374.988 171.094 373.584 175.372 370.777C179.783 367.97 183.192 364.227 185.598 359.549C188.138 354.736 189.408 349.523 189.408 343.909C189.408 338.161 188.204 332.881 185.798 328.068C183.526 323.122 180.318 319.179 176.174 316.238C172.03 313.297 167.284 311.827 161.938 311.827C156.056 311.827 150.642 313.832 145.696 317.842C140.884 321.719 137.275 326.531 134.869 332.279V357.343C136.606 362.556 140.015 366.834 145.095 370.176C150.174 373.384 155.254 374.988 160.333 374.988Z" fill="white"/>
<path d="M214.52 395.841C214.52 387.954 215.388 380.937 217.126 374.788C218.998 368.639 222.206 363.091 226.751 358.145C231.296 353.199 237.712 348.387 246 343.708C253.352 339.832 259.501 336.557 264.447 333.883C269.393 331.21 273.136 328.67 275.675 326.264C278.349 323.724 279.686 320.783 279.686 317.441C279.686 313.431 278.082 310.022 274.873 307.215C271.665 304.274 267.12 302.804 261.239 302.804C254.822 302.804 249.275 304.341 244.596 307.416C240.051 310.49 236.108 314.033 232.766 318.043L215.723 298.393C218.129 295.853 221.738 293.113 226.55 290.172C231.362 287.231 237.11 284.691 243.794 282.552C250.478 280.414 257.83 279.344 265.85 279.344C279.485 279.344 290.045 282.552 297.531 288.969C305.151 295.251 308.96 303.406 308.96 313.431C308.96 319.714 307.49 325.061 304.549 329.472C301.742 333.75 298.2 337.426 293.922 340.5C289.778 343.441 285.768 346.048 281.891 348.32C273.336 352.598 266.586 356.341 261.64 359.549C256.827 362.757 252.951 366.767 250.01 371.579H311.166V395.841H214.52Z" fill="white"/>
<path d="M380.795 397.846C372.775 397.846 365.623 396.042 359.341 392.433C353.058 388.823 348.112 383.877 344.503 377.595V395.841H321.043V262H347.911V309.22C351.654 302.938 356.533 297.992 362.549 294.383C368.698 290.773 375.849 288.969 384.003 288.969C393.093 288.969 401.047 291.509 407.864 296.588C414.815 301.534 420.229 308.151 424.106 316.439C427.982 324.727 429.921 333.816 429.921 343.708C429.921 353.868 427.782 363.024 423.504 371.178C419.227 379.332 413.345 385.816 405.859 390.628C398.507 395.44 390.153 397.846 380.795 397.846ZM373.376 374.988C379.124 374.988 384.137 373.585 388.415 370.777C392.826 367.97 396.235 364.227 398.641 359.549C401.181 354.736 402.451 349.523 402.451 343.909C402.451 338.161 401.247 332.881 398.841 328.068C396.569 323.123 393.361 319.179 389.217 316.238C385.073 313.297 380.327 311.827 374.98 311.827C369.099 311.827 363.685 313.832 358.739 317.842C353.927 321.719 350.318 326.531 347.911 332.279V357.343C349.649 362.556 353.058 366.834 358.138 370.176C363.217 373.384 368.297 374.988 373.376 374.988Z" fill="white"/>
<path d="M440.098 395.841V290.773H466.966V395.841H440.098Z" fill="#FDCF00"/>
<path d="M551.605 390.427C547.996 392.031 543.518 393.636 538.171 395.24C532.957 396.844 527.544 397.646 521.929 397.646C516.983 397.646 512.438 396.777 508.294 395.039C504.151 393.301 500.809 390.561 498.269 386.818C495.863 382.942 494.66 377.929 494.66 371.78V311.426H477.691V290.773H494.66V262H521.528V290.773H543.584V311.426H521.528V362.757C521.528 366.366 522.464 368.973 524.335 370.577C526.34 372.181 528.747 372.983 531.554 372.983C534.361 372.983 537.101 372.515 539.775 371.579C542.448 370.644 544.587 369.842 546.191 369.173L551.605 390.427Z" fill="#FDCF00"/>
</svg>
